<?xml version="1.0" standalone="no"?>
<!DOCTYPE svg PUBLIC "-//W3C//DTD SVG 20010904//EN"
 "http://www.w3.org/TR/2001/REC-SVG-20010904/DTD/svg10.dtd">
<svg version="1.0" xmlns="http://www.w3.org/2000/svg"
 width="300.000000pt" height="300.000000pt" viewBox="0 0 300.000000 300.000000"
 preserveAspectRatio="xMidYMid meet">
<metadata>
Created by potrace 1.10, written by Peter Selinger 2001-2011
</metadata>
<g transform="translate(0.000000,300.000000) scale(0.100000,-0.100000)"
fill="#00ff00" stroke="none">
<path d="M1243 2733 c-65 -125 -87 -204 -88 -308 l0 -90 103 -3 c92 -2 102 -1
102 15 0 36 -63 448 -70 456 -4 5 -25 -27 -47 -70z"/>
<path d="M1706 2800 c-6 -20 -66 -430 -66 -453 0 -16 10 -17 103 -15 l102 3 0
90 c-1 100 -23 182 -81 295 -46 91 -52 98 -58 80z"/>
<path d="M1160 2093 c0 -104 5 -208 11 -232 l10 -43 -100 -166 c-55 -91 -99
-167 -98 -168 1 -1 60 -4 131 -5 l128 -2 49 76 c27 43 52 77 56 77 5 0 30 -7
57 -15 63 -19 129 -19 192 0 27 8 52 15 57 15 4 0 29 -34 56 -77 l49 -76 128
2 c71 1 130 4 131 5 1 1 -43 77 -98 168 l-100 166 10 43 c6 24 11 128 11 232
l0 187 -340 0 -340 0 0 -187z m427 -77 c37 -40 43 -87 18 -136 -22 -42 -53
-60 -105 -60 -73 0 -120 49 -120 124 0 37 37 91 74 107 42 18 99 3 133 -35z"/>
<path d="M886 1397 c-50 -50 -148 -281 -195 -457 -50 -188 -73 -340 -74 -490
-1 -118 2 -141 21 -183 17 -39 29 -51 68 -69 82 -36 165 -15 216 53 16 21 19
48 22 184 6 311 82 568 268 902 18 34 21 46 12 60 -10 16 -30 18 -163 21 -148
2 -152 2 -175 -21z"/>
<path d="M1782 1408 c-16 -16 -15 -39 2 -63 7 -11 43 -80 80 -152 126 -252
187 -491 192 -758 3 -136 6 -163 22 -184 51 -68 134 -89 216 -53 39 18 51 30
68 69 19 42 22 65 21 183 -2 267 -89 615 -218 869 -50 100 -52 101 -223 101
-102 0 -152 -4 -160 -12z"/>
</g>
</svg>
